<svg xmlns="http://www.w3.org/2000/svg">
    <symbol id="cart">
        <path d="M5.4 13.2h11.2c1.3 0 2.3-1 2.3-2.3V6.3L4.2 3.8v-2-.1h-.1L.8 0C.5-.1.2 0 .1.3 0 .6.1.9.4 1l2.7 1.1v12.1c0 1.1.9 2.1 2 2.2-.2.3-.3.7-.3 1.1 0 1.2 1 2.2 2.3 2.2 1.3 0 2.3-1 2.3-2.2 0-.4-.1-.8-.3-1.1h5.1c-.2.3-.3.7-.3 1.1 0 1.2 1 2.2 2.3 2.2s2.3-1 2.3-2.2-1-2.2-2.3-2.2H5.4c-.6 0-1.2-.5-1.2-1.2v-1.5c.4.4.8.6 1.2.6zm2.8 4.5c0 .6-.5 1.1-1.2 1.1-.6 0-1.2-.5-1.2-1.1 0-.6.5-1.1 1.2-1.1s1.2.5 1.2 1.1zm9.1 0c0 .6-.5 1.1-1.2 1.1s-1.1-.4-1.1-1.1c0-.6.5-1.1 1.2-1.1s1.1.5 1.1 1.1zm-.6-5.7H5.4c-.6 0-1.2-.5-1.2-1.2v-6l13.6 1.8v4.2c0 .7-.5 1.2-1.1 1.2z"/>
    </symbol>
    <symbol id="reviews">
        <path d="M15,0H5A5,5,0,0,0,0,5V15a5,5,0,0,0,5,5H15a5,5,0,0,0,5-5V5A5,5,0,0,0,15,0Zm3.8,15A3.8,3.8,0,0,1,15,18.8H5A3.8,3.8,0,0,1,1.2,15V5A3.8,3.8,0,0,1,5,1.2H15A3.8,3.8,0,0,1,18.8,5V15Z"/>
        <path d="M8.9,12V11.5a2.6,2.6,0,0,1,.3-1.2,3.6,3.6,0,0,1,1-1l1.1-1a1.5,1.5,0,0,0,.2-0.8,1.1,1.1,0,0,0-.4-0.9A1.7,1.7,0,0,0,10,6.2l-1.2.2-1.1.4L7.1,5.6a6,6,0,0,1,3-.8,3.2,3.2,0,0,1,2.1.7A2.2,2.2,0,0,1,13,7.3a2.6,2.6,0,0,1-.1.9L12.4,9l-1.1.9-0.9.8a1.6,1.6,0,0,0-.2.9V12H8.9Z"/>
        <path d="M8.7,14.1a0.9,0.9,0,0,1,1-1,1,1,0,0,1,.8.3,1.1,1.1,0,0,1,.3.8,1.1,1.1,0,0,1-.3.8,1,1,0,0,1-.7.3,1,1,0,0,1-.7-0.3,1.1,1.1,0,0,1-.3-0.8h0Z"/>
    </symbol>
    <symbol id="orders">
        <path d="M7.7,3.5a0.6,0.6,0,1,0-.6-0.6A0.6,0.6,0,0,0,7.7,3.5ZM20,5.1L19.3,3a1.1,1.1,0,0,0-2,0L16.5,5.1V18.2a1.8,1.8,0,0,0,3.5,0V5.1ZM18.8,18.2a0.6,0.6,0,0,1-1.2,0V17.7h1.2v0.6Zm0-1.8H17.7V15.3h1.2v1.2Zm0-2.3H17.7V7h1.2v7.1h0Zm0-8.3H17.7V5.4l0.6-1.8,0.6,1.8V5.9ZM13.6,3.5H12.9a1.8,1.8,0,0,0-1.7-1.2H10.5a2.9,2.9,0,0,0-5.7,0H4.1A1.8,1.8,0,0,0,2.4,3.5H1.8A1.8,1.8,0,0,0,0,5.3v13A1.8,1.8,0,0,0,1.8,20H13.6a1.8,1.8,0,0,0,1.8-1.8V5.3A1.8,1.8,0,0,0,13.6,3.5Zm-10,.6a0.6,0.6,0,0,1,.6-0.6H5.3a0.6,0.6,0,0,0,.6-0.6,1.8,1.8,0,0,1,3.5,0,0.6,0.6,0,0,0,.6.6h1.2a0.6,0.6,0,0,1,.6.6V4.7H3.5V4.1h0ZM14.1,18.2a0.6,0.6,0,0,1-.6.6H1.8a0.6,0.6,0,0,1-.6-0.6V5.3a0.6,0.6,0,0,1,.6-0.6H2.3V5.3a0.6,0.6,0,0,0,.6.6h9.5A0.6,0.6,0,0,0,13,5.3h0V4.7h0.6a0.6,0.6,0,0,1,.6.6v13h0Zm-1.8-7.7H8.8a0.6,0.6,0,0,0,0,1.2h3.6A0.6,0.6,0,0,0,12.4,10.5ZM6.9,14.3a0.6,0.6,0,0,0-.8,0h0L4.1,16.2l-0.8-.8a0.6,0.6,0,1,0-.8.8h0l1.2,1.2a0.6,0.6,0,0,0,.8,0l2.3-2.3a0.6,0.6,0,0,0,0-.8h0Zm0-5.9a0.6,0.6,0,0,0-.8,0h0L4.1,10.3,3.3,9.5a0.6,0.6,0,0,0-.8.8h0l1.2,1.2a0.6,0.6,0,0,0,.8,0L6.9,9.2a0.6,0.6,0,0,0,0-.8h0Zm5.5-.2H8.8a0.6,0.6,0,0,0,0,1.2h3.6A0.6,0.6,0,0,0,12.4,8.2Zm0,5.9H8.8a0.6,0.6,0,0,0,0,1.2h3.6A0.6,0.6,0,0,0,12.4,14.1Zm0,2.3H8.8a0.6,0.6,0,1,0,0,1.2h3.6a0.6,0.6,0,1,0,0-1.2h0Z"/>
    </symbol>
</svg>