<svg xmlns="http://www.w3.org/2000/svg" viewBox="0 0 82 70" fill="#3b4458"><path d="M65.7,10.3a34.6,34.6,0,0,0-49.5.3,1.9,1.9,0,0,0,0,2.7,1.9,1.9,0,0,0,2.7,0A30.7,30.7,0,0,1,41.1,3.8,31.2,31.2,0,1,1,10,35V34.6l3.1,3.1a1.9,1.9,0,0,0,2.6,0h0a1.9,1.9,0,0,0,0-2.7L9.5,28.7a1.9,1.9,0,0,0-2.6,0h0L0.5,35a1.9,1.9,0,0,0,0,2.7,1.9,1.9,0,0,0,2.7,0l3.1-3.1V35A34.9,34.9,0,0,0,16.5,59.7a34.6,34.6,0,0,0,49.2,0,35.1,35.1,0,0,0,0-49.5h0Z"/><path d="M51,22.3L28,45.4a1.9,1.9,0,0,0,0,2.7,1.9,1.9,0,0,0,2.6,0h0l23-23.1A1.9,1.9,0,1,0,51,22.3h0ZM45,37.8a6.8,6.8,0,0,0,0,9.5,6.7,6.7,0,0,0,9.5,0,6.8,6.8,0,0,0,0-9.5A6.7,6.7,0,0,0,45,37.8Zm6.8,6.9a2.9,2.9,0,0,1-2.1.9,3,3,0,0,1-2.1-5.1,2.9,2.9,0,0,1,2.1-.9A3,3,0,0,1,51.8,44.7ZM32.4,20.6a6.7,6.7,0,0,0-4.7,2,6.8,6.8,0,0,0,0,9.5,6.7,6.7,0,0,0,9.5,0A6.7,6.7,0,0,0,32.4,20.6Zm2.1,8.9a2.9,2.9,0,0,1-2.1.9,3,3,0,0,1-2.1-.9,2.9,2.9,0,0,1-.9-2.1,3,3,0,0,1,.9-2.1,2.9,2.9,0,0,1,2.1-.9A3,3,0,0,1,34.5,29.4Z"/></svg>