<svg xmlns="http://www.w3.org/2000/svg" viewBox="0 0 66 66" fill="#3b4458"><path d="M21.3,0.1a5.6,5.6,0,1,0,5.5,5.6A5.6,5.6,0,0,0,21.3.1Zm0,8.6a3,3,0,1,1,3-3A3,3,0,0,1,21.3,8.7ZM46.4,0.1A5.6,5.6,0,1,0,52,5.7,5.6,5.6,0,0,0,46.4.1Zm0,8.6a3,3,0,1,1,3-3A3,3,0,0,1,46.4,8.7Z"/><path d="M64.7,63.3H58.1V35.4a1.3,1.3,0,0,0-1.3-1.3h0a1.3,1.3,0,0,0-1.3,1.3h0V63.3h-8V31.1a12.6,12.6,0,0,0-.6-3.8,9.2,9.2,0,0,1,4.5-1.2h0a9.2,9.2,0,0,1,6.5,2.6A8.8,8.8,0,0,1,60.5,35v5.8a1.3,1.3,0,0,0,1.3,1.3h0a1.3,1.3,0,0,0,1.3-1.3h0V35a11.4,11.4,0,0,0-3.5-8.2,11.7,11.7,0,0,0-4.2-2.6A6.2,6.2,0,0,0,51,13.7h0a6.2,6.2,0,0,0-4.3,10.6h0.1l-1,.5a13,13,0,0,0-7.2-6,6.8,6.8,0,1,0-9.1.2,13,13,0,0,0-6.6,5.8l-1.4-.6a6.2,6.2,0,1,0-10.5-4.3,6.2,6.2,0,0,0,1.9,4.5A11.5,11.5,0,0,0,5.7,35v5.8a1.3,1.3,0,1,0,2.6,0V35a9,9,0,0,1,9.1-8.9,9.2,9.2,0,0,1,4.4,1.1,12.7,12.7,0,0,0-.6,3.8V63.3H13.5V35.4a1.3,1.3,0,1,0-2.6,0V63.3H1.3a1.3,1.3,0,0,0,0,2.6H64.7a1.3,1.3,0,0,0,0-2.6h0ZM51,16.3h0a3.6,3.6,0,0,1,2.5,6.1A3.5,3.5,0,0,1,51,23.5h0a3.5,3.5,0,0,1-2.5-1A3.6,3.6,0,0,1,51,16.3h0Zm-34,7.2a3.6,3.6,0,1,1,3.6-3.6A3.6,3.6,0,0,1,17.1,23.5ZM34,9.7a4.3,4.3,0,1,1-4.2,4.3A4.2,4.2,0,0,1,34,9.7ZM27.2,63.3H23.8V47.2a6.5,6.5,0,0,0,3.3,1.3V63.3ZM40.4,30.2a1.3,1.3,0,0,0-1.3,1.3V63.3H35.4V47.6a1.3,1.3,0,1,0-2.6,0V63.3H29.7V31.5a1.3,1.3,0,1,0-2.6,0V45.9a3.8,3.8,0,0,1-3.3-3.7V31.1a10,10,0,0,1,.8-3.9h0a10.6,10.6,0,0,1,19.5,0,10,10,0,0,1,.8,3.8V42.2a3.8,3.8,0,0,1-3.1,3.7V31.5a1.3,1.3,0,0,0-1.3-1.3h0Zm1.3,33.2V48.5a6.5,6.5,0,0,0,3.2-1.3V63.3H41.7Z"/><ellipse cx="61.8" cy="46" rx="1.3" ry="1.3"/><ellipse cx="7" cy="46" rx="1.3" ry="1.3"/></svg>