<svg xmlns="http://www.w3.org/2000/svg" viewBox="0 0 70 60"><path fill="#3b4458" d="M47.77,15.25L37.53,9.37a1.31,1.31,0,0,0-1.79.49v0a1.34,1.34,0,0,0,.49,1.82l10.24,5.88a1.32,1.32,0,0,0,1.8-.51,1.33,1.33,0,0,0-.49-1.81h0ZM38,20.85L27.77,15a1.32,1.32,0,0,0-1.8.49h0a1.34,1.34,0,0,0,.49,1.82L36.7,23.17a1.3,1.3,0,0,0,1.78-.47l0,0A1.35,1.35,0,0,0,38,20.85Zm-9.76,5.6L18,20.58a1.31,1.31,0,0,0-1.79.48v0a1.34,1.34,0,0,0,.49,1.82l10.24,5.87a1.3,1.3,0,0,0,.65.18,1.33,1.33,0,0,0,1.15-.68,1.34,1.34,0,0,0-.49-1.82h0ZM64.47,14.36a0.77,0.77,0,0,0,0-.25s0-.05,0-0.08a1.53,1.53,0,0,0-.12-0.28l0,0a1,1,0,0,0-.17-0.22L64,13.43a1,1,0,0,0-.19-0.14l0,0L41,0.17a1.33,1.33,0,0,0-1.31,0l-39,22.41A1.32,1.32,0,0,0,0,23.74V39.2a1.32,1.32,0,0,0,.67,1.16L23.45,53.43a1.28,1.28,0,0,0,1.3,0L63.8,31a1.35,1.35,0,0,0,.67-1.16V14.41s0,0,0,0h0ZM22.78,50L2.64,38.42V26L22.78,37.59V50h0Zm1.32-14.7L4,23.74,40.37,2.87l20.1,11.54L24.11,35.28h0Zm37.72-6.18L25.43,50V37.59L61.83,16.7V29.09Zm5.82,16.12a2.27,2.27,0,0,1,2.17,1.36,2.23,2.23,0,0,1-.51,2.5c-3.56,3.53-7.67,6.94-11,10.27a2.29,2.29,0,0,1-3,.21l-6.48-4.81a2.23,2.23,0,0,1,.45-3.88,2.29,2.29,0,0,1,2.27.29l5,3.68c3.21-3,6.66-6,9.58-8.92a2.28,2.28,0,0,1,1.56-.68h0Z"/></svg>