<svg xmlns="http://www.w3.org/2000/svg" viewBox="0 0 192 32" fill="#fff"><path d="M42.4,24a8.8,8.8,0,0,1-4.3-1,7.6,7.6,0,0,1-3-2.8A7.8,7.8,0,0,1,34.1,16a7.8,7.8,0,0,1,1.1-4.1,7.6,7.6,0,0,1,3-2.8,9.6,9.6,0,0,1,7.9-.3,7.3,7.3,0,0,1,2.7,2l-2.3,2.1a4.9,4.9,0,0,0-3.9-1.8,5.2,5.2,0,0,0-2.6.6,4.5,4.5,0,0,0-1.7,1.8,5.1,5.1,0,0,0-.6,2.6,5.1,5.1,0,0,0,.6,2.6,4.5,4.5,0,0,0,1.8,1.8,5.1,5.1,0,0,0,2.6.6,4.9,4.9,0,0,0,3.9-1.8l2.3,2.1a7.1,7.1,0,0,1-2.7,2A9.1,9.1,0,0,1,42.4,24Zm18.1-9.3h-4v9H53.1v-9h-4V11.9H60.5v2.8Zm8.8-3a6,6,0,0,1,3,.8,5.5,5.5,0,0,1,2.1,2.1,6.4,6.4,0,0,1,.8,3.2,6.5,6.5,0,0,1-.8,3.2,5.5,5.5,0,0,1-2.1,2.1,6,6,0,0,1-3,.8,4.6,4.6,0,0,1-3.6-1.4V28H62.3V11.9h3.3v1.4A4.6,4.6,0,0,1,69.3,11.7Zm-0.6,9.4a2.9,2.9,0,0,0,2.2-.9,3.3,3.3,0,0,0,.8-2.4,3.3,3.3,0,0,0-.8-2.4,3.1,3.1,0,0,0-4.3,0,3.3,3.3,0,0,0-.8,2.4,3.3,3.3,0,0,0,.8,2.4A2.9,2.9,0,0,0,68.7,21.1Zm14.4,2.8a7.1,7.1,0,0,1-3.4-.8,5.8,5.8,0,0,1-2.3-2.2,6,6,0,0,1-.8-3.1,6,6,0,0,1,.8-3.1,5.8,5.8,0,0,1,2.3-2.2,7.6,7.6,0,0,1,6.7,0,5.8,5.8,0,0,1,2.3,2.2,6,6,0,0,1,.8,3.1,6,6,0,0,1-.8,3.1,5.8,5.8,0,0,1-2.3,2.2,7.1,7.1,0,0,1-3.3.8h0Zm0-2.8a2.9,2.9,0,0,0,2.2-.9,3.3,3.3,0,0,0,.8-2.4,3.3,3.3,0,0,0-.8-2.4,2.9,2.9,0,0,0-2.2-.9,2.9,2.9,0,0,0-2.2.9,3.3,3.3,0,0,0-.9,2.4,3.3,3.3,0,0,0,.9,2.4,2.9,2.9,0,0,0,2.2.9h0ZM92,11.9h3.4v7l5.8-7h3.2V23.7h-3.4v-7l-5.7,7H92V11.9h0Zm5.9-1.3q-3.9,0-3.9-3.4h2.2a1.7,1.7,0,0,0,.4,1.2,1.6,1.6,0,0,0,1.2.4,1.7,1.7,0,0,0,1.2-.4,1.6,1.6,0,0,0,.4-1.2h2.3q0,3.4-3.9,3.4h0Zm21.3,13.1V16.6l-3.5,5.9h-1.5l-3.5-6v7.1h-3.1V11.9h3.6l3.8,6.8,4-6.9h3.2V23.7h-3.1Zm11-12a6.2,6.2,0,0,1,4.2,1.3,5,5,0,0,1,1.5,4v6.8h-3.2V22.2q-1,1.7-3.6,1.7a5.6,5.6,0,0,1-2.4-.5,3.5,3.5,0,0,1-1.5-1.3,3.3,3.3,0,0,1-.5-1.9,3.1,3.1,0,0,1,1.2-2.6,6.4,6.4,0,0,1,3.8-.9h2.7a2.2,2.2,0,0,0-.7-1.7,3,3,0,0,0-2-.6,6,6,0,0,0-1.9.3,4.9,4.9,0,0,0-1.6.8l-1.2-2.4a7.5,7.5,0,0,1,2.3-1.1,10.4,10.4,0,0,1,2.8-.4h0Zm-0.3,9.9a3,3,0,0,0,1.6-.4,2.2,2.2,0,0,0,1-1.2V18.8h-2.4q-2.1,0-2.1,1.4a1.2,1.2,0,0,0,.5,1,2.3,2.3,0,0,0,1.4.4h0Zm15.9-9.9a6,6,0,0,1,3,.8,5.5,5.5,0,0,1,2.1,2.1,6.4,6.4,0,0,1,.8,3.2A6.5,6.5,0,0,1,151,21a5.5,5.5,0,0,1-2.1,2.1,6,6,0,0,1-3,.8,4.6,4.6,0,0,1-3.6-1.4V28h-3.4V11.9h3.3v1.4a4.6,4.6,0,0,1,3.7-1.5h0Zm-0.6,9.4a2.9,2.9,0,0,0,2.2-.9,3.3,3.3,0,0,0,.8-2.4,3.3,3.3,0,0,0-.8-2.4,3.1,3.1,0,0,0-4.3,0,3.3,3.3,0,0,0-.8,2.4,3.3,3.3,0,0,0,.8,2.4,2.9,2.9,0,0,0,2.2.9h0Zm14.1-1.9h-1.8v4.5h-3.4V11.9h3.4v4.6h1.9l3.2-4.6h3.7l-4.1,5.7,4.4,6.2h-4.1Zm20.1-1.4v0.9h-9a2.8,2.8,0,0,0,1.1,1.7,3.8,3.8,0,0,0,2.2.6,4.5,4.5,0,0,0,1.6-.3,4,4,0,0,0,1.3-.9l1.8,2a6.1,6.1,0,0,1-4.9,1.9,7.7,7.7,0,0,1-3.5-.8,5.8,5.8,0,0,1-2.4-2.2,6,6,0,0,1-.8-3.1,6.1,6.1,0,0,1,.8-3.1,5.8,5.8,0,0,1,2.3-2.2,7,7,0,0,1,6.4,0,5.5,5.5,0,0,1,2.2,2.1A6.4,6.4,0,0,1,179.4,17.8Zm-6.1-3.5a3,3,0,0,0-2,.7,2.8,2.8,0,0,0-1,1.8h5.8a2.8,2.8,0,0,0-1-1.8A2.9,2.9,0,0,0,173.3,14.3Zm18.3,0.4h-4v9h-3.4v-9h-4V11.9h11.4v2.8Z"/><path d="M0.1,8L13.9,0,24.5,6.2,21.3,8,13.9,3.7,3.3,9.9V22.1l10.6,6.1L21.3,24v3.7l-7.4,4.3L0.1,24V8Z"/><path d="M13.9,16L27.7,8V24l-3.2,1.8V13.5L13.9,19.7,9.7,17.2v4.9L6.5,20.3V11.7Z"/></svg>