<svg xmlns="http://www.w3.org/2000/svg" viewBox="0 0 20 18"><path fill="#f8f9fb" d="M19.8,7.1l-9.5-7a0.5,0.5,0,0,0-.6,0l-9.5,7a0.5,0.5,0,1,0,.6.8L10,1.2l9.2,6.7a0.5,0.5,0,0,0,.7-0.1h0A0.5,0.5,0,0,0,19.8,7.1Z"/><path fill="#f8f9fb" d="M17.5,8a0.5,0.5,0,0,0-.5.5h0v8.4H12.7V12.4a2.7,2.7,0,0,0-5.3,0v4.6H3.1V8.5A0.5,0.5,0,0,0,2.5,8h0a0.5,0.5,0,0,0-.5.5H2v8.9a0.5,0.5,0,0,0,.5.5H7.9a0.5,0.5,0,0,0,.5-0.5h0V12.4a1.6,1.6,0,0,1,3.2,0v5.1h0a0.5,0.5,0,0,0,.5.5h5.3a0.5,0.5,0,0,0,.5-0.5h0V8.5A0.5,0.5,0,0,0,17.5,8h0Z"/></svg>