<svg xmlns="http://www.w3.org/2000/svg" viewBox="0 0 20 20"><path fill="#f8f9fb" d="M12.2,0.7A2.6,2.6,0,0,0,8.6.7L5.7,3.6a2.5,2.5,0,0,0,0,3.5,1.9,1.9,0,0,0,2.6,0l3.8-3.8a1.9,1.9,0,0,0,0-2.6h0ZM11.6,2.8L7.8,6.6a1.1,1.1,0,0,1-1.5,0,1.7,1.7,0,0,1,0-2.4L9.2,1.3a1.7,1.7,0,0,1,2.4,0,1,1,0,0,1,0,1.5h0Zm6.3,14.7H13a2.1,2.1,0,0,0-2.1,2.1,0.4,0.4,0,0,0,.4.4h8.2a0.4,0.4,0,0,0,.4-0.4h0A2.1,2.1,0,0,0,17.9,17.5Zm-6.1,1.7a1.3,1.3,0,0,1,1.2-.8h4.9a1.3,1.3,0,0,1,1.2.8H11.8ZM19.2,7.8a1.9,1.9,0,0,0-2.6,0l-3.8,3.8a1.9,1.9,0,0,0,0,2.6,2.5,2.5,0,0,0,3.5,0l2.9-2.9A2.5,2.5,0,0,0,19.2,7.8Zm-0.6,3-2.9,2.9a1.7,1.7,0,0,1-2.4,0,1,1,0,0,1,0-1.5l3.8-3.8a1,1,0,0,1,1.5,0A1.7,1.7,0,0,1,18.6,10.7ZM17.4,7.6l-5-5a0.4,0.4,0,0,0-.6,0L7.6,6.8a0.4,0.4,0,0,0,0,.6l5,5a0.4,0.4,0,0,0,.6,0l4.2-4.2A0.4,0.4,0,0,0,17.4,7.6Zm-4.5,3.9L8.5,7l3.6-3.6,4.4,4.4-3.6,3.6h0Zm-1.4-1.4L9.8,8.4a0.4,0.4,0,0,0-.6,0L0.8,15.5a2.3,2.3,0,0,0-.3,3.2H0.7l0.5,0.5a2.3,2.3,0,0,0,3.3-.1l7.1-8.5A0.4,0.4,0,0,0,11.5,10.1ZM3.8,18.6a1.5,1.5,0,0,1-2.1.1l-0.5-.5a1.4,1.4,0,0,1,.1-2.1L9.5,9.3l1.1,1.1Z"/></svg>