<svg xmlns="http://www.w3.org/2000/svg" viewBox="0 0 20 20" fill="#f8f9fb"><path d="M19,7.9l-1.4-.2A7.9,7.9,0,0,0,17,6.3l0.8-1.2a1.2,1.2,0,0,0-.1-1.6L16.4,2.3a1.2,1.2,0,0,0-1.6-.1L13.7,3l-1.4-.6L12.1,1a1.2,1.2,0,0,0-1.2-1H9.1A1.2,1.2,0,0,0,7.9,1L7.6,2.5,6.3,3,5.1,2.2,4.4,2a1.2,1.2,0,0,0-.9.4L2.3,3.6a1.2,1.2,0,0,0-.1,1.6L3,6.3a7.7,7.7,0,0,0-.6,1.4L1,7.9A1.2,1.2,0,0,0,0,9.2v1.8a1.2,1.2,0,0,0,1,1.2l1.4,0.2A7.7,7.7,0,0,0,3,13.7L2.2,14.9a1.2,1.2,0,0,0,.1,1.6l1.2,1.2a1.2,1.2,0,0,0,1.6.1L6.3,17l1.3,0.5L7.9,19a1.2,1.2,0,0,0,1.2,1h1.8a1.2,1.2,0,0,0,1.2-1l0.2-1.4,1.4-.6,1.2,0.8L15.6,18a1.2,1.2,0,0,0,.9-0.4l1.2-1.2a1.2,1.2,0,0,0,.1-1.6L17,13.7a7.9,7.9,0,0,0,.6-1.4l1.4-.2a1.2,1.2,0,0,0,1-1.2V9.1A1.2,1.2,0,0,0,19,7.9Zm-0.1,3H18.8l-1.8.3a0.6,0.6,0,0,0-.5.4,6.7,6.7,0,0,1-.7,1.8,0.6,0.6,0,0,0,0,.6l1,1.5a0.1,0.1,0,0,1,0,.1l-1.2,1.2H15.5l-1.4-1a0.6,0.6,0,0,0-.6,0l-1.7.7a0.6,0.6,0,0,0-.4.5L11,18.8H9L8.7,17a0.6,0.6,0,0,0-.4-0.5l-1.7-.7H6l-1.5,1H4.4L3.1,15.7a0.1,0.1,0,0,1,0-.1l1-1.4a0.6,0.6,0,0,0,0-.6,6.6,6.6,0,0,1-.7-1.7A0.6,0.6,0,0,0,3,11.3L1.2,11H1.1V9.2H1.2L3,8.8a0.6,0.6,0,0,0,.5-0.4,6.7,6.7,0,0,1,.7-1.8,0.6,0.6,0,0,0,0-.6l-1-1.5a0.1,0.1,0,0,1,0-.1L4.3,3.1H4.5l1.4,1a0.6,0.6,0,0,0,.6,0l1.7-.7A0.6,0.6,0,0,0,8.7,3L9,1.2h2L11.2,3a0.6,0.6,0,0,0,.4.5,6.8,6.8,0,0,1,1.8.7,0.6,0.6,0,0,0,.6,0l1.4-1h0.1l1.2,1.2a0.1,0.1,0,0,1,0,.1l-1,1.4a0.6,0.6,0,0,0,0,.6,6.7,6.7,0,0,1,.7,1.7,0.6,0.6,0,0,0,.5.4L18.8,9h0.1v1.8h0Z"/><path d="M10,5.7A4.3,4.3,0,1,0,14.3,10,4.3,4.3,0,0,0,10,5.7Zm0,7.5A3.2,3.2,0,1,1,13.2,10,3.2,3.2,0,0,1,10,13.2Z"/></svg>