<svg xmlns="http://www.w3.org/2000/svg" viewBox="0 0 24 18" fill="#7e8890"><path d="M21,0H2.9A2.9,2.9,0,0,0,0,2.9V15.1A2.9,2.9,0,0,0,2.9,18H21A2.9,2.9,0,0,0,24,15.1V2.9A2.9,2.9,0,0,0,21,0h0Zm1.6,15.1A1.6,1.6,0,0,1,21,16.7H2.9a1.6,1.6,0,0,1-1.6-1.6V2.9A1.6,1.6,0,0,1,2.9,1.4H21a1.6,1.6,0,0,1,1.6,1.6V15.1h0Z"/><path d="M15.1,8.9L21,3.7A0.7,0.7,0,0,0,21,2.8h0a0.7,0.7,0,0,0-.9,0L12,9.8,10.4,8.5H10.3L3.9,2.7a0.7,0.7,0,0,0-.9.1,0.7,0.7,0,0,0,0,.9H3L8.9,8.9,3,14.3a0.7,0.7,0,0,0,0,.9H3a0.7,0.7,0,0,0,.9,0l6-5.5,1.6,1.4a0.7,0.7,0,0,0,.9,0l1.7-1.5,6,5.6,0.5,0.2,0.5-.2a0.7,0.7,0,0,0,0-.9h0Z"/></svg>