<svg xmlns="http://www.w3.org/2000/svg">
    <symbol id="feedback">
        <path d="M18.7,14.2A2.7,2.7,0,0,1,16.2,16H8.8l-4,3.9H4.3A0.5,0.5,0,0,1,4,19.5V16H2.7A2.7,2.7,0,0,1,0,13.2V4.8A2.7,2.7,0,0,1,2.7,2H11a0.5,0.5,0,0,1,.5.5A0.5,0.5,0,0,1,11,3H2.7A1.8,1.8,0,0,0,1,4.8v8.4A1.8,1.8,0,0,0,2.7,15H4.5a0.5,0.5,0,0,1,.5.5v2.8l3.3-3.2h8a1.8,1.8,0,0,0,1.6-1.1,0.5,0.5,0,0,1,.7-0.3,0.5,0.5,0,0,1,.2.7h0Zm1.3-8h0l-0.7,4.7A2.1,2.1,0,0,1,17,12.8H11.6a1.9,1.9,0,0,1-1.3-.5l-0.6.2H7.9a1,1,0,0,1-.9-1V5.7a1,1,0,0,1,.9-1H9.7a0.9,0.9,0,0,1,.7.3c0.2,0,2-.6,2-2.2V0.6A0.5,0.5,0,0,1,12.7.1a2.3,2.3,0,0,1,2,.3,2.3,2.3,0,0,1,.8,2V4.2H18A2,2,0,0,1,20,6.2ZM9.7,5.8H8v5.7H9.7V5.8ZM19,6.1A0.9,0.9,0,0,0,18,5.2H15a0.5,0.5,0,0,1-.5-0.5V2.4a1.4,1.4,0,0,0-.4-1.1,1.1,1.1,0,0,0-.8-0.2V2.9c0,2.4-2.6,3.2-2.7,3.2v4.8a1,1,0,0,0,.9,1H17a1.1,1.1,0,0,0,1.3-1h0Z"/>
    </symbol>
    <symbol id="orders">
        <path d="M16,1.1H15.3A1.7,1.7,0,0,0,13.6,0H6.4A1.7,1.7,0,0,0,4.7,1.1H4A2.9,2.9,0,0,0,1,3.9V17.2A2.9,2.9,0,0,0,4,20H16a2.9,2.9,0,0,0,3-2.8V3.9a2.9,2.9,0,0,0-3-2.8h0Zm-9.6,0h7.2a0.5,0.5,0,0,1,.6.6,0.5,0.5,0,0,1-.6.6H6.4a0.5,0.5,0,0,1-.6-0.6A0.5,0.5,0,0,1,6.4,1.1ZM17.8,17.2A1.7,1.7,0,0,1,16,18.9H4a1.7,1.7,0,0,1-1.8-1.7V3.9A1.7,1.7,0,0,1,4,2.2H4.7A1.7,1.7,0,0,0,6.4,3.3h7.2a1.7,1.7,0,0,0,1.7-1.1H16a1.7,1.7,0,0,1,1.8,1.7V17.2h0Zm-3.6-2.8H5.8a0.6,0.6,0,1,0,0,1.1h8.4A0.6,0.6,0,1,0,14.2,14.4Zm0-3.9H5.8a0.6,0.6,0,1,0,0,1.1h8.4A0.6,0.6,0,1,0,14.2,10.6Zm0-3.9H5.8a0.6,0.6,0,1,0,0,1.1h8.4a0.6,0.6,0,1,0,0-1.1h0Z"/>
    </symbol>
    <symbol id="cart">
        <path d="M19.7,5.8A1.8,1.8,0,0,0,18.4,5L3,3.8,2.6,1.9a0.4,0.4,0,0,0-.3-0.3L0.8,1a0.6,0.6,0,0,0-.8.5,0.5,0.5,0,0,0,.4.7L1.7,2.5,2.3,4.6l2.3,8.4a3.8,3.8,0,0,0,1,1.6,2.4,2.4,0,0,0-.9,1.9A2.5,2.5,0,0,0,7,19a2.5,2.5,0,0,0,2.3-2.5A2.3,2.3,0,0,0,9,15.3h4.6a2.3,2.3,0,0,0-.3,1.2A2.5,2.5,0,0,0,15.6,19a2.4,2.4,0,0,0,2.3-2.5,2.3,2.3,0,0,0-.7-1.7,3.2,3.2,0,0,0,1.2-1.7l1.4-5.7a2.1,2.1,0,0,0-.2-1.7h0ZM7,17.8a1.2,1.2,0,0,1-1.2-1.2A1.1,1.1,0,0,1,7,15.3a1.2,1.2,0,0,1,0,2.5H7Zm8.6,0a1.2,1.2,0,0,1-1.2-1.2,1.1,1.1,0,0,1,1.2-1.2,1.2,1.2,0,0,1,1.2,1.2A1.1,1.1,0,0,1,15.6,17.8Zm1.8-5.1a1.6,1.6,0,0,1-1.7,1.3H7.4a1.9,1.9,0,0,1-1.7-1.3L3.6,5.1,18.2,6.2a0.6,0.6,0,0,1,.4.2,0.7,0.7,0,0,1,.1.4l-1.3,5.8h0Z"/>
    </symbol>
</svg>