<svg xmlns="http://www.w3.org/2000/svg" viewBox="0 0 68 62" fill="#3b4458"><path d="M66,58.7H64.6V18.5a1.4,1.4,0,0,0-1.4-1.4H54.8a1.4,1.4,0,0,0-1.4,1.4V58.7H47.9V29.6a1.4,1.4,0,0,0-1.4-1.4H38.1a1.4,1.4,0,0,0-1.4,1.4V58.7H31.1V26.8a1.4,1.4,0,0,0-1.4-1.4H21.4A1.4,1.4,0,0,0,20,26.8V58.7H14.4V46.2A1.4,1.4,0,0,0,13,44.8H4.7a1.4,1.4,0,0,0-1.4,1.4V58.7H1.9a1.4,1.4,0,1,0,0,2.8H66a1.4,1.4,0,1,0,0-2.8h0Zm-54.3,0H6.1V47.6h5.6V58.7Zm16.7,0H22.8V28.2h5.6V58.7h0Zm16.7,0H39.5V31h5.6V58.7Zm16.7,0H56.2V19.9h5.6V58.7Z"/><path d="M4.7,36.5a1.4,1.4,0,0,0,.9-0.4L26,17.3l16,4a1.4,1.4,0,0,0,1.3-.4L59,5.3v5a1.4,1.4,0,0,0,2.8,0V1.9A1.4,1.4,0,0,0,60.4.5H52a1.4,1.4,0,1,0,0,2.8h5L41.9,18.4l-16-4a1.4,1.4,0,0,0-1.3.3L3.7,34.1a1.4,1.4,0,0,0-.1,1.9h0a1.4,1.4,0,0,0,1,.4h0Z"/></svg>