<svg xmlns="http://www.w3.org/2000/svg" viewBox="0 0 70 70"><path fill="#3b4458" d="M51.2,14.1L49.1,6.8a9.5,9.5,0,0,0-3.5-5A9.6,9.6,0,0,0,37.2.4h0l-3.4,1h0L24.9,4h0L6.8,9.3a9.5,9.5,0,0,0-5,3.5A9.6,9.6,0,0,0,.4,21.2l12.3,42a9.5,9.5,0,0,0,11.9,6.5l8.6-2.5A18.9,18.9,0,0,0,62.1,48.4,18.9,18.9,0,0,0,51.2,14.1h0ZM37.8,2.6h0a7.3,7.3,0,0,1,6.4,1.1,7.2,7.2,0,0,1,2.7,3.8l2,6.8a18.8,18.8,0,0,0-9.1,3.6L35.5,3.2l2.3-.7h0ZM33,27.6L26.6,5.9l6.7-2,4.6,15.6A18.9,18.9,0,0,0,33,27.6ZM24,67.4h0a7.2,7.2,0,0,1-9.1-4.9L2.6,20.5a7.3,7.3,0,0,1,1.1-6.4,7.2,7.2,0,0,1,3.8-2.7l16.9-5,7.7,26.4V33a17.2,17.2,0,0,0,.2,2.7A18.9,18.9,0,0,0,31,65.4l-7,2h0Zm31.2-4.6a16.7,16.7,0,0,1-21,2.1H34a16.8,16.8,0,0,1-2.4-2,16.7,16.7,0,0,1,2.6-25.7h0A16.7,16.7,0,0,1,55.2,62.9ZM61.6,46A18.9,18.9,0,0,0,34.5,34.4c0-.4-0.1-0.9-0.1-1.3a16.6,16.6,0,0,1,5.5-12.3h0a16.5,16.5,0,0,1,10.3-4.2h0.9A16.7,16.7,0,0,1,61.6,46ZM18.4,19.8a4.6,4.6,0,0,0-5.7-3.1h0a4.6,4.6,0,0,0-3.1,5.7l0.6,1.9a4.6,4.6,0,1,0,8.8-2.6Zm-3.2,5.4a2.3,2.3,0,0,1-2.9-1.6h0l-0.6-1.9a2.3,2.3,0,0,1,1.6-2.9H14a2.3,2.3,0,0,1,2.2,1.7l0.6,1.9a2.3,2.3,0,0,1-1.6,2.9h0ZM45.7,42.4H43.8a4.8,4.8,0,0,0-4.8,4.8V50H37.6a1.1,1.1,0,0,0-.1,2.3h1.5v2.9H37.6a1.1,1.1,0,0,0-.1,2.3h1.5v2a1.1,1.1,0,0,0,2.3.1s0,0,0-.1v-2h3.3a1.1,1.1,0,0,0,.1-2.3H41.3V52.2h4.3a4.6,4.6,0,0,0,4.6-4.6V47A4.6,4.6,0,0,0,45.7,42.4ZM48,47.6A2.3,2.3,0,0,1,45.7,50H41.3V47.2a2.5,2.5,0,0,1,2.5-2.5h1.8A2.3,2.3,0,0,1,48,47v0.6Z"/></svg>