<svg xmlns="http://www.w3.org/2000/svg" viewBox="0 0 70 70"><path fill="#3b4458" d="M35,0A35,35,0,1,0,70,35,35,35,0,0,0,35,0Zm1.4,66.8H36.2V53.2H47.3C44.8,60.7,40.9,65.8,36.4,66.8ZM22.4,53.2H33.2V66.8h0C28.8,65.8,24.9,60.6,22.4,53.2ZM3.2,36.5H16.6a63.3,63.3,0,0,0,1.7,13.8H7A31.7,31.7,0,0,1,3.2,36.5ZM47.3,16.8H36.2V3.1h0.2c4.5,1,8.4,6.2,10.9,13.6h0Zm0.9,3a59.7,59.7,0,0,1,1.9,13.8H36.2V19.7h12ZM33.2,3.2h0V16.8H22.4C24.9,9.4,28.8,4.2,33.2,3.2h0Zm0,16.6V33.5H19.6a59.6,59.6,0,0,1,1.9-13.8H33.2ZM16.6,33.5H3.2A31.7,31.7,0,0,1,7,19.7H18.4a63.3,63.3,0,0,0-1.7,13.8h0Zm3,3H33.2V50.3H21.5A59.7,59.7,0,0,1,19.6,36.5ZM36.2,50.3V36.5H50.1a59.6,59.6,0,0,1-1.9,13.8h-12ZM53.1,36.5H66.8A31.7,31.7,0,0,1,63,50.3H51.3A63.3,63.3,0,0,0,53.1,36.5Zm0-3a63.3,63.3,0,0,0-1.7-13.8H63a31.7,31.7,0,0,1,3.9,13.8H53.1Zm8.1-16.8H50.5A31.8,31.8,0,0,0,43.8,4.4,31.9,31.9,0,0,1,61.1,16.8ZM25.8,4.5a32.2,32.2,0,0,0-6.6,12.3H8.9A32,32,0,0,1,25.8,4.5ZM8.9,53.2H19.2a32.2,32.2,0,0,0,6.6,12.3A32,32,0,0,1,8.9,53.2ZM43.8,65.6a31.8,31.8,0,0,0,6.7-12.4H61.1A31.8,31.8,0,0,1,43.8,65.6Z"/></svg>