<svg xmlns="http://www.w3.org/2000/svg" viewBox="0 0 588 244"><path fill="#d2dbde" opacity="0.6" d="M183.8,157.2v39.6a5,5,0,0,1-5,5H165.4a5,5,0,0,0-5,5v27.5a5,5,0,0,1-5,5H111.2a5,5,0,0,1-5-5V206.8a5,5,0,0,0-5-5H5a5,5,0,0,1-5-5V153.4a5,5,0,0,1,.5-2.3L73.1,7.4a5,5,0,0,1,4.5-2.7h46.3a5,5,0,0,1,4.5,7.3l-67.2,133a5,5,0,0,0,4.5,7.3h35.7a5,5,0,0,0,5-5V106.9a5,5,0,0,1,5-5h44.1a5,5,0,0,1,5,5v40.3a5,5,0,0,0,5,5h13.4a5,5,0,0,1,5,5h0ZM292.3,244c-60.5,0-95.2-49.6-95.2-122S231.9,0,292.3,0s95.2,49.6,95.2,122S352.8,244,292.3,244Zm0-52.3c28.1,0,41.8-24.5,41.8-69.7s-13.7-69.7-41.8-69.7S250.6,76.8,250.6,122,264.3,191.7,292.3,191.7ZM588,157.2v39.6a5,5,0,0,1-5,5H569.6a5,5,0,0,0-5,5v27.5a5,5,0,0,1-5,5H515.5a5,5,0,0,1-5-5V206.8a5,5,0,0,0-5-5H409.3a5,5,0,0,1-5-5V153.4a5,5,0,0,1,.5-2.3L477.4,7.4a5,5,0,0,1,4.5-2.7h46.3a5,5,0,0,1,4.5,7.3l-67.2,133a5,5,0,0,0,4.5,7.3h35.6a5,5,0,0,0,5-5V106.9a5,5,0,0,1,5-5h44.1a5,5,0,0,1,5,5v40.3a5,5,0,0,0,5,5H583a5,5,0,0,1,5,5h0Z"/></svg>