<svg xmlns="http://www.w3.org/2000/svg" viewBox="0 0 16 20"><path fill="#f8f9fb" d="M15.4,5.2H3.2a2,2,0,1,1,0-4.1H15.4A0.5,0.5,0,0,0,16,.5,0.5,0.5,0,0,0,15.4,0H3.2A3.2,3.2,0,0,0,0,3.1V16.8A3.2,3.2,0,0,0,3.2,20H15.4a0.6,0.6,0,0,0,.6-0.5V5.7A0.6,0.6,0,0,0,15.4,5.2ZM14.9,18.9H3.2a2.1,2.1,0,0,1-2.1-2V5.5a3.2,3.2,0,0,0,2.1.8H14.9V18.9Z"/><path fill="#f8f9fb" d="M3.3,2.6a0.5,0.5,0,1,0,0,1.1H13.7a0.5,0.5,0,0,0,.6-0.5h0a0.6,0.6,0,0,0-.6-0.5H3.3ZM5.3,16.5A0.5,0.5,0,0,0,6,16.2H6l0.7-1.9H9.3L10,16.2a0.6,0.6,0,0,0,.7.3,0.5,0.5,0,0,0,.3-0.7h0l-2.5-7h-1l-2.5,7a0.6,0.6,0,0,0,.3.7h0ZM8,10.6l0.9,2.6H7.1L8,10.6H8Z"/></svg>